<?xml version="1.0" encoding="UTF-8" standalone="no"?>
<!-- Created with Inkscape (http://www.inkscape.org/) -->

<svg
   width="242.27028mm"
   height="173.85815mm"
   viewBox="0 0 269.1892 193.17572"
   version="1.1"
   id="svg25"
   inkscape:version="1.2.1 (9c6d41e410, 2022-07-14)"
   sodipodi:docname="diagrama_funcao.svg"
   xmlns:inkscape="http://www.inkscape.org/namespaces/inkscape"
   xmlns:sodipodi="http://sodipodi.sourceforge.net/DTD/sodipodi-0.dtd"
   xmlns="http://www.w3.org/2000/svg"
   xmlns:svg="http://www.w3.org/2000/svg"
   xmlns:ns2="http://www.iki.fi/pav/software/textext/">
  <sodipodi:namedview
     id="namedview27"
     pagecolor="#ffffff"
     bordercolor="#ffffff"
     borderopacity="0"
     inkscape:showpageshadow="2"
     inkscape:pageopacity="0.0"
     inkscape:pagecheckerboard="0"
     inkscape:deskcolor="#d1d1d1"
     inkscape:document-units="mm"
     showgrid="false"
     inkscape:zoom="1"
     inkscape:cx="328"
     inkscape:cy="281"
     inkscape:window-width="1920"
     inkscape:window-height="1017"
     inkscape:window-x="-8"
     inkscape:window-y="-8"
     inkscape:window-maximized="1"
     inkscape:current-layer="layer1" />
  <defs
     id="defs22">
    <marker
       style="overflow:visible"
       id="Arrow2"
       refX="0"
       refY="0"
       orient="0"
       inkscape:stockid="Arrow2"
       markerWidth="7.6999998"
       markerHeight="5.5999999"
       viewBox="0 0 7.7 5.6"
       inkscape:isstock="true"
       inkscape:collect="always"
       preserveAspectRatio="xMidYMid">
      <path
         transform="scale(0.7)"
         d="M -2,-4 9,0 -2,4 c 2,-2.33 2,-5.66 0,-8 z"
         style="fill:context-stroke;fill-rule:evenodd;stroke:none"
         id="arrow2L" />
    </marker>
    <rect
       x="242.70695"
       y="198.57841"
       width="38.612473"
       height="62.055756"
       id="rect4634" />
    <rect
       x="242.70695"
       y="198.57841"
       width="38.612473"
       height="62.055756"
       id="rect4634-2" />
    <rect
       x="242.70695"
       y="198.57841"
       width="38.612473"
       height="62.055756"
       id="rect4634-1" />
    <rect
       x="242.70695"
       y="198.57841"
       width="70.329857"
       height="60.676739"
       id="rect4634-6" />
    <rect
       x="242.70695"
       y="198.57841"
       width="110.32135"
       height="66.192802"
       id="rect4634-7" />
    <rect
       x="242.70695"
       y="198.57841"
       width="38.612473"
       height="62.055756"
       id="rect4634-2-8" />
    <rect
       x="242.70695"
       y="198.57841"
       width="38.612473"
       height="62.055756"
       id="rect4634-1-1" />
    <marker
       style="overflow:visible"
       id="Arrow2-1"
       refX="0"
       refY="0"
       orient="0"
       inkscape:stockid="Arrow2"
       markerWidth="7.6999998"
       markerHeight="5.5999999"
       viewBox="0 0 7.7 5.6"
       inkscape:isstock="true"
       inkscape:collect="always"
       preserveAspectRatio="xMidYMid">
      <path
         transform="scale(0.7)"
         d="M -2,-4 9,0 -2,4 c 2,-2.33 2,-5.66 0,-8 z"
         style="fill:context-stroke;fill-rule:evenodd;stroke:none"
         id="arrow2L-2" />
    </marker>
    <marker
       style="overflow:visible"
       id="Arrow2-8"
       refX="0"
       refY="0"
       orient="0"
       inkscape:stockid="Arrow2"
       markerWidth="7.6999998"
       markerHeight="5.5999999"
       viewBox="0 0 7.7 5.6"
       inkscape:isstock="true"
       inkscape:collect="always"
       preserveAspectRatio="xMidYMid">
      <path
         transform="scale(0.7)"
         d="M -2,-4 9,0 -2,4 c 2,-2.33 2,-5.66 0,-8 z"
         style="fill:context-stroke;fill-rule:evenodd;stroke:none"
         id="arrow2L-8" />
    </marker>
    <g
       id="id-de5dd9ce-5b33-4cd6-8619-a3c1b1d2687d-9">
      <g
         id="id-b5143436-4e7c-45d0-ac83-eec337ac5ff7-1" />
      <g
         id="id-3aa69b87-eef0-4711-ad5c-925f8a5ee24f-7">
        <path
           d="M 3.71875,-3.765625 C 3.53125,-4.140625 3.25,-4.40625 2.796875,-4.40625 c -1.15625,0 -2.390625,1.46875 -2.390625,2.921875 0,0.9375 0.546875,1.59375 1.3125,1.59375 0.203125,0 0.703125,-0.046875 1.296875,-0.75 0.078125,0.421875 0.4375,0.75 0.90625,0.75 0.359375,0 0.578125,-0.234375 0.75,-0.546875 0.15625,-0.359375 0.296875,-0.96875 0.296875,-0.984375 0,-0.109375 -0.09375,-0.109375 -0.125,-0.109375 -0.09375,0 -0.109375,0.046875 -0.140625,0.1875 -0.171875,0.640625 -0.34375,1.234375 -0.75,1.234375 -0.28125,0 -0.296875,-0.265625 -0.296875,-0.453125 0,-0.21875 0.015625,-0.3125 0.125,-0.75 C 3.890625,-1.71875 3.90625,-1.828125 4,-2.203125 L 4.359375,-3.59375 c 0.0625,-0.28125 0.0625,-0.296875 0.0625,-0.34375 0,-0.171875 -0.109375,-0.265625 -0.28125,-0.265625 -0.25,0 -0.390625,0.21875 -0.421875,0.4375 z M 3.078125,-1.1875 C 3.015625,-1 3.015625,-0.984375 2.875,-0.8125 2.4375,-0.265625 2.03125,-0.109375 1.75,-0.109375 c -0.5,0 -0.640625,-0.546875 -0.640625,-0.9375 0,-0.5 0.3125,-1.71875 0.546875,-2.1875 0.3125,-0.578125 0.75,-0.953125 1.15625,-0.953125 0.640625,0 0.78125,0.8125 0.78125,0.875 0,0.0625 -0.015625,0.125 -0.03125,0.171875 z m 0,0"
           id="id-828a7d1c-7561-48a9-80f3-3c8390cce21f-8" />
      </g>
      <g
         id="id-cb26fefe-7a12-49c1-a7eb-bcf0ddc54aa3-6" />
      <g
         id="id-948580fa-cf95-47bf-be43-2b514b524bbf-7">
        <path
           d="m 2.328125,-4.4375 c 0,-0.1875 0,-0.1875 -0.203125,-0.1875 -0.453125,0.4375 -1.078125,0.4375 -1.359375,0.4375 v 0.25 c 0.15625,0 0.625,0 1,-0.1875 v 3.546875 c 0,0.234375 0,0.328125 -0.6875,0.328125 H 0.8125 V 0 c 0.125,0 0.984375,-0.03125 1.234375,-0.03125 0.21875,0 1.09375,0.03125 1.25,0.03125 V -0.25 H 3.03125 c -0.703125,0 -0.703125,-0.09375 -0.703125,-0.328125 z m 0,0"
           id="id-66c61683-0d8b-4c0d-a53b-f6a8ed21568d-8" />
      </g>
    </g>
    <g
       id="id-de5dd9ce-5b33-4cd6-8619-a3c1b1d2687d-2">
      <g
         id="id-b5143436-4e7c-45d0-ac83-eec337ac5ff7-5" />
      <g
         id="id-3aa69b87-eef0-4711-ad5c-925f8a5ee24f-0">
        <path
           d="M 3.71875,-3.765625 C 3.53125,-4.140625 3.25,-4.40625 2.796875,-4.40625 c -1.15625,0 -2.390625,1.46875 -2.390625,2.921875 0,0.9375 0.546875,1.59375 1.3125,1.59375 0.203125,0 0.703125,-0.046875 1.296875,-0.75 0.078125,0.421875 0.4375,0.75 0.90625,0.75 0.359375,0 0.578125,-0.234375 0.75,-0.546875 0.15625,-0.359375 0.296875,-0.96875 0.296875,-0.984375 0,-0.109375 -0.09375,-0.109375 -0.125,-0.109375 -0.09375,0 -0.109375,0.046875 -0.140625,0.1875 -0.171875,0.640625 -0.34375,1.234375 -0.75,1.234375 -0.28125,0 -0.296875,-0.265625 -0.296875,-0.453125 0,-0.21875 0.015625,-0.3125 0.125,-0.75 C 3.890625,-1.71875 3.90625,-1.828125 4,-2.203125 L 4.359375,-3.59375 c 0.0625,-0.28125 0.0625,-0.296875 0.0625,-0.34375 0,-0.171875 -0.109375,-0.265625 -0.28125,-0.265625 -0.25,0 -0.390625,0.21875 -0.421875,0.4375 z M 3.078125,-1.1875 C 3.015625,-1 3.015625,-0.984375 2.875,-0.8125 2.4375,-0.265625 2.03125,-0.109375 1.75,-0.109375 c -0.5,0 -0.640625,-0.546875 -0.640625,-0.9375 0,-0.5 0.3125,-1.71875 0.546875,-2.1875 0.3125,-0.578125 0.75,-0.953125 1.15625,-0.953125 0.640625,0 0.78125,0.8125 0.78125,0.875 0,0.0625 -0.015625,0.125 -0.03125,0.171875 z m 0,0"
           id="id-828a7d1c-7561-48a9-80f3-3c8390cce21f-5" />
      </g>
      <g
         id="id-cb26fefe-7a12-49c1-a7eb-bcf0ddc54aa3-4" />
      <g
         id="id-948580fa-cf95-47bf-be43-2b514b524bbf-4">
        <path
           d="m 2.328125,-4.4375 c 0,-0.1875 0,-0.1875 -0.203125,-0.1875 -0.453125,0.4375 -1.078125,0.4375 -1.359375,0.4375 v 0.25 c 0.15625,0 0.625,0 1,-0.1875 v 3.546875 c 0,0.234375 0,0.328125 -0.6875,0.328125 H 0.8125 V 0 c 0.125,0 0.984375,-0.03125 1.234375,-0.03125 0.21875,0 1.09375,0.03125 1.25,0.03125 V -0.25 H 3.03125 c -0.703125,0 -0.703125,-0.09375 -0.703125,-0.328125 z m 0,0"
           id="id-66c61683-0d8b-4c0d-a53b-f6a8ed21568d-2" />
      </g>
    </g>
    <marker
       style="overflow:visible"
       id="Arrow2-8-1"
       refX="0"
       refY="0"
       orient="0"
       inkscape:stockid="Arrow2"
       markerWidth="7.6999998"
       markerHeight="5.5999999"
       viewBox="0 0 7.7 5.6"
       inkscape:isstock="true"
       inkscape:collect="always"
       preserveAspectRatio="xMidYMid">
      <path
         transform="scale(0.7)"
         d="M -2,-4 9,0 -2,4 c 2,-2.33 2,-5.66 0,-8 z"
         style="fill:context-stroke;fill-rule:evenodd;stroke:none"
         id="arrow2L-8-9" />
    </marker>
  </defs>
  <g
     inkscape:label="Camada 1"
     inkscape:groupmode="layer"
     id="layer1"
     transform="translate(-30,-35.675556)">
    <ellipse
       style="fill:none;stroke:none;stroke-width:0.293981"
       id="path3550"
       cx="70.540543"
       cy="90.202698"
       rx="40.540543"
       ry="54.527027" />
    <ellipse
       style="fill:none;stroke:none;stroke-width:0.293981"
       id="path3552"
       cx="76.216217"
       cy="96.283783"
       rx="41.351353"
       ry="48.445946" />
    <ellipse
       style="fill:none;stroke:none;stroke-width:0.293981"
       id="path3554"
       cx="91.418922"
       cy="114.32433"
       rx="50.472973"
       ry="59.999996" />
    <ellipse
       style="fill:none;stroke:none;stroke-width:0.293981"
       id="path3556"
       cx="85.945946"
       cy="118.37838"
       rx="30.810808"
       ry="55.945946" />
    <ellipse
       style="fill:none;stroke:#f70606;stroke-width:0.961111;stroke-dasharray:none;stroke-opacity:1"
       id="path3560"
       cx="82.057129"
       cy="115.26284"
       rx="48.24324"
       ry="70.337837" />
    <text
       xml:space="preserve"
       transform="matrix(0.29398148,0,0,0.29398148,5.4092141,83.036134)"
       id="text4632-21"
       style="font-size:53.3333px;writing-mode:tb-rl;white-space:pre;shape-inside:url(#rect4634-6);shape-padding:0;display:inline;fill:#000000;stroke:#f70606;stroke-width:0;stroke-dasharray:none;stroke-opacity:1" />
    <text
       xml:space="preserve"
       style="font-size:15.679px;writing-mode:tb-rl;fill:#000000;stroke:#f70606;stroke-width:0;stroke-dasharray:none;stroke-opacity:1"
       x="78.3489"
       y="140.28531"
       id="text5443"><tspan
         sodipodi:role="line"
         id="tspan5441"
         style="stroke-width:0"
         x="78.3489"
         y="140.28531">...</tspan></text>
    <ellipse
       style="fill:#000000;stroke:#f70606;stroke-width:0;stroke-dasharray:none;stroke-opacity:1"
       id="path5445"
       cx="83.919701"
       cy="65.122093"
       rx="1.6974787"
       ry="1.7887573" />
    <ellipse
       style="fill:none;stroke:none;stroke-width:0.293981"
       id="path3550-3"
       cx="227.83783"
       cy="90.202583"
       rx="40.540543"
       ry="54.527027" />
    <ellipse
       style="fill:none;stroke:none;stroke-width:0.293981"
       id="path3552-2"
       cx="233.5135"
       cy="96.283669"
       rx="41.351353"
       ry="48.445946" />
    <ellipse
       style="fill:none;stroke:none;stroke-width:0.293981"
       id="path3554-0"
       cx="248.71622"
       cy="168.85129"
       rx="50.472973"
       ry="59.999996" />
    <ellipse
       style="fill:none;stroke:none;stroke-width:0.293981"
       id="path3556-6"
       cx="243.24324"
       cy="118.37827"
       rx="30.810808"
       ry="55.945946" />
    <ellipse
       style="fill:none;stroke:#f70606;stroke-width:0.961111;stroke-dasharray:none;stroke-opacity:1"
       id="path3560-8"
       cx="239.35442"
       cy="115.26273"
       rx="48.24324"
       ry="70.337837" />
    <text
       xml:space="preserve"
       style="font-size:15.679px;writing-mode:tb-rl;fill:#000000;stroke:#f70606;stroke-width:0;stroke-dasharray:none;stroke-opacity:1"
       x="246.12668"
       y="140.28519"
       id="text5443-7"><tspan
         sodipodi:role="line"
         id="tspan5441-5"
         style="stroke-width:0"
         x="246.12668"
         y="140.28519">...</tspan></text>
    <path
       style="fill:#010000;fill-opacity:1;stroke:#000000;stroke-width:0.555121;stroke-dasharray:none;stroke-opacity:1;marker-mid:url(#Arrow2)"
       d="m 90.350808,66.081081 c 134.190502,-0.412585 134.190502,0 134.190502,0 z"
       id="path6379" />
    <path
       style="fill:#010000;fill-opacity:1;stroke:#000000;stroke-width:0.555121;stroke-dasharray:none;stroke-opacity:1;marker-mid:url(#Arrow2-1)"
       d="m 90.350853,93.648648 c 134.190537,-0.412585 134.190537,0 134.190537,0 z"
       id="path6379-1" />
    <path
       style="fill:#010000;fill-opacity:1;stroke:#000000;stroke-width:0.555121;stroke-dasharray:none;stroke-opacity:1;marker-mid:url(#Arrow2-8)"
       d="m 90.350853,121.29681 c 134.190507,-0.41259 134.190507,0 134.190507,0 z"
       id="path6379-5" />
    <g
       transform="matrix(1.33333,0,0,1.33333,239.00794,61.624315)"
       ns2:version="1.8.2"
       ns2:texconverter="pdflatex"
       ns2:pdfconverter="inkscape"
       ns2:text="$a_1$"
       ns2:preamble="C:\Users\Fernando\AppData\Roaming\inkscape\extensions\textext\default_packages.tex"
       ns2:scale="1.0"
       ns2:alignment="middle center"
       ns2:stroke-to-path="0"
       ns2:inkscapeversion="1.2.1"
       ns2:jacobian_sqrt="1.33333"
       id="g432">
      <defs
         id="id-ffdc5d1e-6f10-4f85-9076-c7c89caa0844">
        <g
           id="id-de5dd9ce-5b33-4cd6-8619-a3c1b1d2687d">
          <g
             id="id-b5143436-4e7c-45d0-ac83-eec337ac5ff7" />
          <g
             id="id-3aa69b87-eef0-4711-ad5c-925f8a5ee24f">
            <path
               d="M 3.71875,-3.765625 C 3.53125,-4.140625 3.25,-4.40625 2.796875,-4.40625 c -1.15625,0 -2.390625,1.46875 -2.390625,2.921875 0,0.9375 0.546875,1.59375 1.3125,1.59375 0.203125,0 0.703125,-0.046875 1.296875,-0.75 0.078125,0.421875 0.4375,0.75 0.90625,0.75 0.359375,0 0.578125,-0.234375 0.75,-0.546875 0.15625,-0.359375 0.296875,-0.96875 0.296875,-0.984375 0,-0.109375 -0.09375,-0.109375 -0.125,-0.109375 -0.09375,0 -0.109375,0.046875 -0.140625,0.1875 -0.171875,0.640625 -0.34375,1.234375 -0.75,1.234375 -0.28125,0 -0.296875,-0.265625 -0.296875,-0.453125 0,-0.21875 0.015625,-0.3125 0.125,-0.75 C 3.890625,-1.71875 3.90625,-1.828125 4,-2.203125 L 4.359375,-3.59375 c 0.0625,-0.28125 0.0625,-0.296875 0.0625,-0.34375 0,-0.171875 -0.109375,-0.265625 -0.28125,-0.265625 -0.25,0 -0.390625,0.21875 -0.421875,0.4375 z M 3.078125,-1.1875 C 3.015625,-1 3.015625,-0.984375 2.875,-0.8125 2.4375,-0.265625 2.03125,-0.109375 1.75,-0.109375 c -0.5,0 -0.640625,-0.546875 -0.640625,-0.9375 0,-0.5 0.3125,-1.71875 0.546875,-2.1875 0.3125,-0.578125 0.75,-0.953125 1.15625,-0.953125 0.640625,0 0.78125,0.8125 0.78125,0.875 0,0.0625 -0.015625,0.125 -0.03125,0.171875 z m 0,0"
               id="id-828a7d1c-7561-48a9-80f3-3c8390cce21f" />
          </g>
          <g
             id="id-cb26fefe-7a12-49c1-a7eb-bcf0ddc54aa3" />
          <g
             id="id-948580fa-cf95-47bf-be43-2b514b524bbf">
            <path
               d="m 2.328125,-4.4375 c 0,-0.1875 0,-0.1875 -0.203125,-0.1875 -0.453125,0.4375 -1.078125,0.4375 -1.359375,0.4375 v 0.25 c 0.15625,0 0.625,0 1,-0.1875 v 3.546875 c 0,0.234375 0,0.328125 -0.6875,0.328125 H 0.8125 V 0 c 0.125,0 0.984375,-0.03125 1.234375,-0.03125 0.21875,0 1.09375,0.03125 1.25,0.03125 V -0.25 H 3.03125 c -0.703125,0 -0.703125,-0.09375 -0.703125,-0.328125 z m 0,0"
               id="id-66c61683-0d8b-4c0d-a53b-f6a8ed21568d" />
          </g>
        </g>
      </defs>
      <g
         fill="#000000"
         fill-opacity="1"
         id="id-f6ddb1bf-7491-4648-a910-8d7c1cae6c27"
         transform="translate(-149.118,-130.359)">
        <g
           transform="translate(148.712,134.765)"
           id="g425">
          <path
             d="M 3.71875,-3.765625 C 3.53125,-4.140625 3.25,-4.40625 2.796875,-4.40625 c -1.15625,0 -2.390625,1.46875 -2.390625,2.921875 0,0.9375 0.546875,1.59375 1.3125,1.59375 0.203125,0 0.703125,-0.046875 1.296875,-0.75 0.078125,0.421875 0.4375,0.75 0.90625,0.75 0.359375,0 0.578125,-0.234375 0.75,-0.546875 0.15625,-0.359375 0.296875,-0.96875 0.296875,-0.984375 0,-0.109375 -0.09375,-0.109375 -0.125,-0.109375 -0.09375,0 -0.109375,0.046875 -0.140625,0.1875 -0.171875,0.640625 -0.34375,1.234375 -0.75,1.234375 -0.28125,0 -0.296875,-0.265625 -0.296875,-0.453125 0,-0.21875 0.015625,-0.3125 0.125,-0.75 C 3.890625,-1.71875 3.90625,-1.828125 4,-2.203125 L 4.359375,-3.59375 c 0.0625,-0.28125 0.0625,-0.296875 0.0625,-0.34375 0,-0.171875 -0.109375,-0.265625 -0.28125,-0.265625 -0.25,0 -0.390625,0.21875 -0.421875,0.4375 z M 3.078125,-1.1875 C 3.015625,-1 3.015625,-0.984375 2.875,-0.8125 2.4375,-0.265625 2.03125,-0.109375 1.75,-0.109375 c -0.5,0 -0.640625,-0.546875 -0.640625,-0.9375 0,-0.5 0.3125,-1.71875 0.546875,-2.1875 0.3125,-0.578125 0.75,-0.953125 1.15625,-0.953125 0.640625,0 0.78125,0.8125 0.78125,0.875 0,0.0625 -0.015625,0.125 -0.03125,0.171875 z m 0,0"
             id="id-2ea57406-00c7-4dad-aa1c-b37be564be79" />
        </g>
      </g>
      <g
         fill="#000000"
         fill-opacity="1"
         id="id-fd6e5778-ab6e-4b6a-aab9-60b326b1317f"
         transform="translate(-149.118,-130.359)">
        <g
           transform="translate(153.978,136.259)"
           id="g429">
          <path
             d="m 2.328125,-4.4375 c 0,-0.1875 0,-0.1875 -0.203125,-0.1875 -0.453125,0.4375 -1.078125,0.4375 -1.359375,0.4375 v 0.25 c 0.15625,0 0.625,0 1,-0.1875 v 3.546875 c 0,0.234375 0,0.328125 -0.6875,0.328125 H 0.8125 V 0 c 0.125,0 0.984375,-0.03125 1.234375,-0.03125 0.21875,0 1.09375,0.03125 1.25,0.03125 V -0.25 H 3.03125 c -0.703125,0 -0.703125,-0.09375 -0.703125,-0.328125 z m 0,0"
             id="id-75ceafa8-4c8b-4af9-aa6b-65a27ccbbdb9" />
        </g>
      </g>
    </g>
    <g
       transform="matrix(1.33333,0,0,1.33333,238.71457,88.670611)"
       ns2:version="1.8.2"
       ns2:texconverter="pdflatex"
       ns2:pdfconverter="inkscape"
       ns2:text="$a_2$"
       ns2:preamble="C:\Users\Fernando\AppData\Roaming\inkscape\extensions\textext\default_packages.tex"
       ns2:scale="1.0"
       ns2:alignment="middle center"
       ns2:stroke-to-path="0"
       ns2:inkscapeversion="1.2.1"
       ns2:jacobian_sqrt="1.33333"
       id="g3791">
      <defs
         id="id-3bbb239b-20ae-433f-bd1b-8e9b225949d0">
        <g
           id="id-5972e149-8601-40f0-a80e-727f47fb4ba2">
          <g
             id="id-767cde46-f477-4441-96d3-ee307e26a805" />
          <g
             id="id-b92714f9-3663-4a98-9a5b-4bb1bc1c2d44">
            <path
               d="M 3.71875,-3.765625 C 3.53125,-4.140625 3.25,-4.40625 2.796875,-4.40625 c -1.15625,0 -2.390625,1.46875 -2.390625,2.921875 0,0.9375 0.546875,1.59375 1.3125,1.59375 0.203125,0 0.703125,-0.046875 1.296875,-0.75 0.078125,0.421875 0.4375,0.75 0.90625,0.75 0.359375,0 0.578125,-0.234375 0.75,-0.546875 0.15625,-0.359375 0.296875,-0.96875 0.296875,-0.984375 0,-0.109375 -0.09375,-0.109375 -0.125,-0.109375 -0.09375,0 -0.109375,0.046875 -0.140625,0.1875 -0.171875,0.640625 -0.34375,1.234375 -0.75,1.234375 -0.28125,0 -0.296875,-0.265625 -0.296875,-0.453125 0,-0.21875 0.015625,-0.3125 0.125,-0.75 C 3.890625,-1.71875 3.90625,-1.828125 4,-2.203125 L 4.359375,-3.59375 c 0.0625,-0.28125 0.0625,-0.296875 0.0625,-0.34375 0,-0.171875 -0.109375,-0.265625 -0.28125,-0.265625 -0.25,0 -0.390625,0.21875 -0.421875,0.4375 z M 3.078125,-1.1875 C 3.015625,-1 3.015625,-0.984375 2.875,-0.8125 2.4375,-0.265625 2.03125,-0.109375 1.75,-0.109375 c -0.5,0 -0.640625,-0.546875 -0.640625,-0.9375 0,-0.5 0.3125,-1.71875 0.546875,-2.1875 0.3125,-0.578125 0.75,-0.953125 1.15625,-0.953125 0.640625,0 0.78125,0.8125 0.78125,0.875 0,0.0625 -0.015625,0.125 -0.03125,0.171875 z m 0,0"
               id="id-6158f00d-3639-4349-9020-203e943d4bde" />
          </g>
          <g
             id="id-391851d1-2ae1-4471-b816-67385950208a" />
          <g
             id="id-8da64ee4-de93-401b-b3e9-5098c22de7b6">
            <path
               d="M 3.515625,-1.265625 H 3.28125 c -0.015625,0.15625 -0.09375,0.5625 -0.1875,0.625 C 3.046875,-0.59375 2.515625,-0.59375 2.40625,-0.59375 H 1.125 c 0.734375,-0.640625 0.984375,-0.84375 1.390625,-1.171875 0.515625,-0.40625 1,-0.84375 1,-1.5 0,-0.84375 -0.734375,-1.359375 -1.625,-1.359375 -0.859375,0 -1.453125,0.609375 -1.453125,1.25 0,0.34375 0.296875,0.390625 0.375,0.390625 0.15625,0 0.359375,-0.125 0.359375,-0.375 0,-0.125 -0.046875,-0.375 -0.40625,-0.375 C 0.984375,-4.21875 1.453125,-4.375 1.78125,-4.375 c 0.703125,0 1.0625,0.546875 1.0625,1.109375 0,0.609375 -0.4375,1.078125 -0.65625,1.328125 L 0.515625,-0.265625 C 0.4375,-0.203125 0.4375,-0.1875 0.4375,0 h 2.875 z m 0,0"
               id="id-a5b3b757-1c9e-4639-ab1d-ab513cc3cb93" />
          </g>
        </g>
      </defs>
      <g
         fill="#000000"
         fill-opacity="1"
         id="id-95749f50-cb06-4755-be4e-2a577527c790"
         transform="translate(-149.118,-130.359)">
        <g
           transform="translate(148.712,134.765)"
           id="g3784">
          <path
             d="M 3.71875,-3.765625 C 3.53125,-4.140625 3.25,-4.40625 2.796875,-4.40625 c -1.15625,0 -2.390625,1.46875 -2.390625,2.921875 0,0.9375 0.546875,1.59375 1.3125,1.59375 0.203125,0 0.703125,-0.046875 1.296875,-0.75 0.078125,0.421875 0.4375,0.75 0.90625,0.75 0.359375,0 0.578125,-0.234375 0.75,-0.546875 0.15625,-0.359375 0.296875,-0.96875 0.296875,-0.984375 0,-0.109375 -0.09375,-0.109375 -0.125,-0.109375 -0.09375,0 -0.109375,0.046875 -0.140625,0.1875 -0.171875,0.640625 -0.34375,1.234375 -0.75,1.234375 -0.28125,0 -0.296875,-0.265625 -0.296875,-0.453125 0,-0.21875 0.015625,-0.3125 0.125,-0.75 C 3.890625,-1.71875 3.90625,-1.828125 4,-2.203125 L 4.359375,-3.59375 c 0.0625,-0.28125 0.0625,-0.296875 0.0625,-0.34375 0,-0.171875 -0.109375,-0.265625 -0.28125,-0.265625 -0.25,0 -0.390625,0.21875 -0.421875,0.4375 z M 3.078125,-1.1875 C 3.015625,-1 3.015625,-0.984375 2.875,-0.8125 2.4375,-0.265625 2.03125,-0.109375 1.75,-0.109375 c -0.5,0 -0.640625,-0.546875 -0.640625,-0.9375 0,-0.5 0.3125,-1.71875 0.546875,-2.1875 0.3125,-0.578125 0.75,-0.953125 1.15625,-0.953125 0.640625,0 0.78125,0.8125 0.78125,0.875 0,0.0625 -0.015625,0.125 -0.03125,0.171875 z m 0,0"
             id="id-09da2c4f-9ceb-4d94-b86c-2e4331d9d8d6" />
        </g>
      </g>
      <g
         fill="#000000"
         fill-opacity="1"
         id="id-5d4f7405-9ce0-4103-8258-a4ba8c3752fe"
         transform="translate(-149.118,-130.359)">
        <g
           transform="translate(153.978,136.259)"
           id="g3788">
          <path
             d="M 3.515625,-1.265625 H 3.28125 c -0.015625,0.15625 -0.09375,0.5625 -0.1875,0.625 C 3.046875,-0.59375 2.515625,-0.59375 2.40625,-0.59375 H 1.125 c 0.734375,-0.640625 0.984375,-0.84375 1.390625,-1.171875 0.515625,-0.40625 1,-0.84375 1,-1.5 0,-0.84375 -0.734375,-1.359375 -1.625,-1.359375 -0.859375,0 -1.453125,0.609375 -1.453125,1.25 0,0.34375 0.296875,0.390625 0.375,0.390625 0.15625,0 0.359375,-0.125 0.359375,-0.375 0,-0.125 -0.046875,-0.375 -0.40625,-0.375 C 0.984375,-4.21875 1.453125,-4.375 1.78125,-4.375 c 0.703125,0 1.0625,0.546875 1.0625,1.109375 0,0.609375 -0.4375,1.078125 -0.65625,1.328125 L 0.515625,-0.265625 C 0.4375,-0.203125 0.4375,-0.1875 0.4375,0 h 2.875 z m 0,0"
             id="id-069725f4-038a-403d-a130-c484ad98dd1a" />
        </g>
      </g>
    </g>
    <g
       transform="matrix(1.33333,0,0,1.33333,238.67357,117.09281)"
       ns2:version="1.8.2"
       ns2:texconverter="pdflatex"
       ns2:pdfconverter="inkscape"
       ns2:text="$a_3$"
       ns2:preamble="C:\Users\Fernando\AppData\Roaming\inkscape\extensions\textext\default_packages.tex"
       ns2:scale="1.0"
       ns2:alignment="middle center"
       ns2:stroke-to-path="0"
       ns2:inkscapeversion="1.2.1"
       ns2:jacobian_sqrt="1.33333"
       id="g4033">
      <defs
         id="id-9e768c8f-ce4a-4071-98de-cd807a7d414e">
        <g
           id="id-03e71a5f-2d96-4656-84f1-a7b24d1fdb96">
          <g
             id="id-a5e04d8c-d21f-40a7-88e5-b4c1c8c28143" />
          <g
             id="id-8d6016f6-469d-41a3-8e1b-ba841c703973">
            <path
               d="M 3.71875,-3.765625 C 3.53125,-4.140625 3.25,-4.40625 2.796875,-4.40625 c -1.15625,0 -2.390625,1.46875 -2.390625,2.921875 0,0.9375 0.546875,1.59375 1.3125,1.59375 0.203125,0 0.703125,-0.046875 1.296875,-0.75 0.078125,0.421875 0.4375,0.75 0.90625,0.75 0.359375,0 0.578125,-0.234375 0.75,-0.546875 0.15625,-0.359375 0.296875,-0.96875 0.296875,-0.984375 0,-0.109375 -0.09375,-0.109375 -0.125,-0.109375 -0.09375,0 -0.109375,0.046875 -0.140625,0.1875 -0.171875,0.640625 -0.34375,1.234375 -0.75,1.234375 -0.28125,0 -0.296875,-0.265625 -0.296875,-0.453125 0,-0.21875 0.015625,-0.3125 0.125,-0.75 C 3.890625,-1.71875 3.90625,-1.828125 4,-2.203125 L 4.359375,-3.59375 c 0.0625,-0.28125 0.0625,-0.296875 0.0625,-0.34375 0,-0.171875 -0.109375,-0.265625 -0.28125,-0.265625 -0.25,0 -0.390625,0.21875 -0.421875,0.4375 z M 3.078125,-1.1875 C 3.015625,-1 3.015625,-0.984375 2.875,-0.8125 2.4375,-0.265625 2.03125,-0.109375 1.75,-0.109375 c -0.5,0 -0.640625,-0.546875 -0.640625,-0.9375 0,-0.5 0.3125,-1.71875 0.546875,-2.1875 0.3125,-0.578125 0.75,-0.953125 1.15625,-0.953125 0.640625,0 0.78125,0.8125 0.78125,0.875 0,0.0625 -0.015625,0.125 -0.03125,0.171875 z m 0,0"
               id="id-faa62296-a30b-4a9b-8038-cc2510a6f98c" />
          </g>
          <g
             id="id-4ffb5f72-54b8-4356-ab71-ae015dd5fc42" />
          <g
             id="id-eeab4d1e-0fb7-431f-98d0-f52d99ba3d46">
            <path
               d="m 1.90625,-2.328125 c 0.546875,0 0.9375,0.375 0.9375,1.125 0,0.859375 -0.515625,1.125 -0.90625,1.125 -0.28125,0 -0.90625,-0.078125 -1.1875,-0.5 0.328125,0 0.40625,-0.234375 0.40625,-0.390625 0,-0.21875 -0.171875,-0.375 -0.390625,-0.375 -0.1875,0 -0.390625,0.125 -0.390625,0.40625 0,0.65625 0.71875,1.078125 1.5625,1.078125 0.96875,0 1.640625,-0.65625 1.640625,-1.34375 0,-0.546875 -0.4375,-1.09375 -1.203125,-1.25 0.71875,-0.265625 0.984375,-0.78125 0.984375,-1.21875 0,-0.546875 -0.625,-0.953125 -1.40625,-0.953125 -0.765625,0 -1.359375,0.375 -1.359375,0.9375 0,0.234375 0.15625,0.359375 0.359375,0.359375 0.21875,0 0.359375,-0.15625 0.359375,-0.34375 0,-0.203125 -0.140625,-0.359375 -0.359375,-0.375 0.25,-0.296875 0.71875,-0.375 0.984375,-0.375 0.3125,0 0.75,0.15625 0.75,0.75 0,0.296875 -0.09375,0.625 -0.28125,0.828125 -0.21875,0.265625 -0.421875,0.28125 -0.765625,0.3125 -0.171875,0.015625 -0.1875,0.015625 -0.21875,0.015625 -0.015625,0 -0.078125,0.015625 -0.078125,0.09375 0,0.09375 0.0625,0.09375 0.1875,0.09375 z m 0,0"
               id="id-334dabc7-8fa0-42d1-8639-8514af3dd3ab" />
          </g>
        </g>
      </defs>
      <g
         fill="#000000"
         fill-opacity="1"
         id="id-42341db3-9351-41cf-9c5b-74760829a09e"
         transform="translate(-149.118,-130.359)">
        <g
           transform="translate(148.712,134.765)"
           id="g4026">
          <path
             d="M 3.71875,-3.765625 C 3.53125,-4.140625 3.25,-4.40625 2.796875,-4.40625 c -1.15625,0 -2.390625,1.46875 -2.390625,2.921875 0,0.9375 0.546875,1.59375 1.3125,1.59375 0.203125,0 0.703125,-0.046875 1.296875,-0.75 0.078125,0.421875 0.4375,0.75 0.90625,0.75 0.359375,0 0.578125,-0.234375 0.75,-0.546875 0.15625,-0.359375 0.296875,-0.96875 0.296875,-0.984375 0,-0.109375 -0.09375,-0.109375 -0.125,-0.109375 -0.09375,0 -0.109375,0.046875 -0.140625,0.1875 -0.171875,0.640625 -0.34375,1.234375 -0.75,1.234375 -0.28125,0 -0.296875,-0.265625 -0.296875,-0.453125 0,-0.21875 0.015625,-0.3125 0.125,-0.75 C 3.890625,-1.71875 3.90625,-1.828125 4,-2.203125 L 4.359375,-3.59375 c 0.0625,-0.28125 0.0625,-0.296875 0.0625,-0.34375 0,-0.171875 -0.109375,-0.265625 -0.28125,-0.265625 -0.25,0 -0.390625,0.21875 -0.421875,0.4375 z M 3.078125,-1.1875 C 3.015625,-1 3.015625,-0.984375 2.875,-0.8125 2.4375,-0.265625 2.03125,-0.109375 1.75,-0.109375 c -0.5,0 -0.640625,-0.546875 -0.640625,-0.9375 0,-0.5 0.3125,-1.71875 0.546875,-2.1875 0.3125,-0.578125 0.75,-0.953125 1.15625,-0.953125 0.640625,0 0.78125,0.8125 0.78125,0.875 0,0.0625 -0.015625,0.125 -0.03125,0.171875 z m 0,0"
             id="id-2c5ef130-ea65-4a99-8402-9bdbdcfe4f14" />
        </g>
      </g>
      <g
         fill="#000000"
         fill-opacity="1"
         id="id-d57b2034-a3d8-4a17-ba59-2592024e4e10"
         transform="translate(-149.118,-130.359)">
        <g
           transform="translate(153.978,136.259)"
           id="g4030">
          <path
             d="m 1.90625,-2.328125 c 0.546875,0 0.9375,0.375 0.9375,1.125 0,0.859375 -0.515625,1.125 -0.90625,1.125 -0.28125,0 -0.90625,-0.078125 -1.1875,-0.5 0.328125,0 0.40625,-0.234375 0.40625,-0.390625 0,-0.21875 -0.171875,-0.375 -0.390625,-0.375 -0.1875,0 -0.390625,0.125 -0.390625,0.40625 0,0.65625 0.71875,1.078125 1.5625,1.078125 0.96875,0 1.640625,-0.65625 1.640625,-1.34375 0,-0.546875 -0.4375,-1.09375 -1.203125,-1.25 0.71875,-0.265625 0.984375,-0.78125 0.984375,-1.21875 0,-0.546875 -0.625,-0.953125 -1.40625,-0.953125 -0.765625,0 -1.359375,0.375 -1.359375,0.9375 0,0.234375 0.15625,0.359375 0.359375,0.359375 0.21875,0 0.359375,-0.15625 0.359375,-0.34375 0,-0.203125 -0.140625,-0.359375 -0.359375,-0.375 0.25,-0.296875 0.71875,-0.375 0.984375,-0.375 0.3125,0 0.75,0.15625 0.75,0.75 0,0.296875 -0.09375,0.625 -0.28125,0.828125 -0.21875,0.265625 -0.421875,0.28125 -0.765625,0.3125 -0.171875,0.015625 -0.1875,0.015625 -0.21875,0.015625 -0.015625,0 -0.078125,0.015625 -0.078125,0.09375 0,0.09375 0.0625,0.09375 0.1875,0.09375 z m 0,0"
             id="id-0bcbdf1b-8f7f-4a76-98f8-97ccdd674489" />
        </g>
      </g>
    </g>
    <g
       transform="matrix(1.33333,0,0,1.33333,75.424074,59.954389)"
       ns2:version="1.8.2"
       ns2:texconverter="pdflatex"
       ns2:pdfconverter="inkscape"
       ns2:text="$1$"
       ns2:preamble="C:\Users\Fernando\AppData\Roaming\inkscape\extensions\textext\default_packages.tex"
       ns2:scale="1.0"
       ns2:alignment="middle center"
       ns2:stroke-to-path="0"
       ns2:inkscapeversion="1.2.1"
       ns2:jacobian_sqrt="1.33333"
       id="g4280">
      <defs
         id="id-b4fe3c46-05f9-426c-85ad-4ac290c45c2e">
        <g
           id="id-777da323-159b-403a-9ccb-a5aac9467c3f">
          <g
             id="id-c2410993-f676-43cf-a8dc-9da047e95d46" />
          <g
             id="id-dabcff7b-d94f-49f3-b464-5508f0a2bb95">
            <path
               d="m 2.9375,-6.375 c 0,-0.25 0,-0.265625 -0.234375,-0.265625 C 2.078125,-6 1.203125,-6 0.890625,-6 v 0.3125 c 0.203125,0 0.78125,0 1.296875,-0.265625 v 5.171875 c 0,0.359375 -0.03125,0.46875 -0.921875,0.46875 h -0.3125 V 0 c 0.34375,-0.03125 1.203125,-0.03125 1.609375,-0.03125 0.390625,0 1.265625,0 1.609375,0.03125 v -0.3125 h -0.3125 c -0.90625,0 -0.921875,-0.109375 -0.921875,-0.46875 z m 0,0"
               id="id-0dc5f7cc-a668-4cc2-bb07-2f200e2b8a2c" />
          </g>
        </g>
      </defs>
      <g
         fill="#000000"
         fill-opacity="1"
         id="id-111b473a-845c-4ee8-8e53-e0ae94670705"
         transform="translate(-149.603,-128.124)">
        <g
           transform="translate(148.712,134.765)"
           id="g4277">
          <path
             d="m 2.9375,-6.375 c 0,-0.25 0,-0.265625 -0.234375,-0.265625 C 2.078125,-6 1.203125,-6 0.890625,-6 v 0.3125 c 0.203125,0 0.78125,0 1.296875,-0.265625 v 5.171875 c 0,0.359375 -0.03125,0.46875 -0.921875,0.46875 h -0.3125 V 0 c 0.34375,-0.03125 1.203125,-0.03125 1.609375,-0.03125 0.390625,0 1.265625,0 1.609375,0.03125 v -0.3125 h -0.3125 c -0.90625,0 -0.921875,-0.109375 -0.921875,-0.46875 z m 0,0"
             id="id-af6536d2-3c2a-4964-a44a-13c63f317b54" />
        </g>
      </g>
    </g>
    <g
       transform="matrix(1.33333,0,0,1.33333,73.495167,87.294667)"
       ns2:version="1.8.2"
       ns2:texconverter="pdflatex"
       ns2:pdfconverter="inkscape"
       ns2:text="$2$"
       ns2:preamble="C:\Users\Fernando\AppData\Roaming\inkscape\extensions\textext\default_packages.tex"
       ns2:scale="1.0"
       ns2:alignment="middle center"
       ns2:stroke-to-path="0"
       ns2:inkscapeversion="1.2.1"
       ns2:jacobian_sqrt="1.33333"
       id="g4536">
      <defs
         id="id-47c3c14e-936f-4086-95ff-70b2bf00ded6">
        <g
           id="id-bb356cb4-6560-4a9f-a84e-e15eeb19277f">
          <g
             id="id-7305b1e9-2582-4f29-81c6-001fceb36fb3" />
          <g
             id="id-61ab344c-f9c1-4c26-b77e-a03897cad0e8">
            <path
               d="m 1.265625,-0.765625 1.0625,-1.03125 c 1.546875,-1.375 2.140625,-1.90625 2.140625,-2.90625 0,-1.140625 -0.890625,-1.9375 -2.109375,-1.9375 -1.125,0 -1.859375,0.921875 -1.859375,1.8125 0,0.546875 0.5,0.546875 0.53125,0.546875 0.171875,0 0.515625,-0.109375 0.515625,-0.53125 0,-0.25 -0.1875,-0.515625 -0.53125,-0.515625 -0.078125,0 -0.09375,0 -0.125,0.015625 0.21875,-0.65625 0.765625,-1.015625 1.34375,-1.015625 0.90625,0 1.328125,0.8125 1.328125,1.625 C 3.5625,-3.90625 3.078125,-3.125 2.515625,-2.5 l -1.90625,2.125 C 0.5,-0.265625 0.5,-0.234375 0.5,0 H 4.203125 L 4.46875,-1.734375 H 4.234375 C 4.171875,-1.4375 4.109375,-1 4,-0.84375 3.9375,-0.765625 3.28125,-0.765625 3.0625,-0.765625 Z m 0,0"
               id="id-78e6e04c-00c3-4357-a223-6c8ace0cfeaf" />
          </g>
        </g>
      </defs>
      <g
         fill="#000000"
         fill-opacity="1"
         id="id-c34e1aa3-7cb6-4bf7-bb73-b20d8b82e345"
         transform="translate(-149.212,-128.124)">
        <g
           transform="translate(148.712,134.765)"
           id="g4533">
          <path
             d="m 1.265625,-0.765625 1.0625,-1.03125 c 1.546875,-1.375 2.140625,-1.90625 2.140625,-2.90625 0,-1.140625 -0.890625,-1.9375 -2.109375,-1.9375 -1.125,0 -1.859375,0.921875 -1.859375,1.8125 0,0.546875 0.5,0.546875 0.53125,0.546875 0.171875,0 0.515625,-0.109375 0.515625,-0.53125 0,-0.25 -0.1875,-0.515625 -0.53125,-0.515625 -0.078125,0 -0.09375,0 -0.125,0.015625 0.21875,-0.65625 0.765625,-1.015625 1.34375,-1.015625 0.90625,0 1.328125,0.8125 1.328125,1.625 C 3.5625,-3.90625 3.078125,-3.125 2.515625,-2.5 l -1.90625,2.125 C 0.5,-0.265625 0.5,-0.234375 0.5,0 H 4.203125 L 4.46875,-1.734375 H 4.234375 C 4.171875,-1.4375 4.109375,-1 4,-0.84375 3.9375,-0.765625 3.28125,-0.765625 3.0625,-0.765625 Z m 0,0"
             id="id-47330540-f6f2-4ab7-86ac-0f5d72cde6bc" />
        </g>
      </g>
    </g>
    <g
       transform="matrix(1.33333,0,0,1.33333,73.675148,115.07791)"
       ns2:version="1.8.2"
       ns2:texconverter="pdflatex"
       ns2:pdfconverter="inkscape"
       ns2:text="$3$"
       ns2:preamble="C:\Users\Fernando\AppData\Roaming\inkscape\extensions\textext\default_packages.tex"
       ns2:scale="1.0"
       ns2:alignment="middle center"
       ns2:stroke-to-path="0"
       ns2:inkscapeversion="1.2.1"
       ns2:jacobian_sqrt="1.33333"
       id="g4810">
      <defs
         id="id-8fd15a66-2154-44fb-ab51-ba88b50b88fb">
        <g
           id="id-2b437fa6-fc19-4894-817d-7b7fdd85da41">
          <g
             id="id-903a52d3-b5ac-4d09-8dde-c579997b0f46" />
          <g
             id="id-ac872d0a-8ca9-4318-b0e3-4ac54205ff67">
            <path
               d="m 2.890625,-3.515625 c 0.8125,-0.265625 1.390625,-0.953125 1.390625,-1.75 0,-0.8125 -0.875,-1.375 -1.828125,-1.375 -1,0 -1.765625,0.59375 -1.765625,1.359375 0,0.328125 0.21875,0.515625 0.515625,0.515625 0.296875,0 0.5,-0.21875 0.5,-0.515625 0,-0.484375 -0.46875,-0.484375 -0.609375,-0.484375 0.296875,-0.5 0.953125,-0.625 1.3125,-0.625 0.421875,0 0.96875,0.21875 0.96875,1.109375 0,0.125 -0.03125,0.703125 -0.28125,1.140625 C 2.796875,-3.65625 2.453125,-3.625 2.203125,-3.625 2.125,-3.609375 1.890625,-3.59375 1.8125,-3.59375 c -0.078125,0.015625 -0.140625,0.03125 -0.140625,0.125 0,0.109375 0.0625,0.109375 0.234375,0.109375 h 0.4375 c 0.8125,0 1.1875,0.671875 1.1875,1.65625 0,1.359375 -0.6875,1.640625 -1.125,1.640625 -0.4375,0 -1.1875,-0.171875 -1.53125,-0.75 0.34375,0.046875 0.65625,-0.171875 0.65625,-0.546875 0,-0.359375 -0.265625,-0.5625 -0.546875,-0.5625 -0.25,0 -0.5625,0.140625 -0.5625,0.578125 0,0.90625 0.921875,1.5625 2.015625,1.5625 1.21875,0 2.125,-0.90625 2.125,-1.921875 0,-0.8125 -0.640625,-1.59375 -1.671875,-1.8125 z m 0,0"
               id="id-45dc1b49-66e2-4b6a-acc3-9bfd57fb92f6" />
          </g>
        </g>
      </defs>
      <g
         fill="#000000"
         fill-opacity="1"
         id="id-9b570098-469e-4e4a-95ed-18f879fd9f1e"
         transform="translate(-149.134,-128.124)">
        <g
           transform="translate(148.712,134.765)"
           id="g4807">
          <path
             d="m 2.890625,-3.515625 c 0.8125,-0.265625 1.390625,-0.953125 1.390625,-1.75 0,-0.8125 -0.875,-1.375 -1.828125,-1.375 -1,0 -1.765625,0.59375 -1.765625,1.359375 0,0.328125 0.21875,0.515625 0.515625,0.515625 0.296875,0 0.5,-0.21875 0.5,-0.515625 0,-0.484375 -0.46875,-0.484375 -0.609375,-0.484375 0.296875,-0.5 0.953125,-0.625 1.3125,-0.625 0.421875,0 0.96875,0.21875 0.96875,1.109375 0,0.125 -0.03125,0.703125 -0.28125,1.140625 C 2.796875,-3.65625 2.453125,-3.625 2.203125,-3.625 2.125,-3.609375 1.890625,-3.59375 1.8125,-3.59375 c -0.078125,0.015625 -0.140625,0.03125 -0.140625,0.125 0,0.109375 0.0625,0.109375 0.234375,0.109375 h 0.4375 c 0.8125,0 1.1875,0.671875 1.1875,1.65625 0,1.359375 -0.6875,1.640625 -1.125,1.640625 -0.4375,0 -1.1875,-0.171875 -1.53125,-0.75 0.34375,0.046875 0.65625,-0.171875 0.65625,-0.546875 0,-0.359375 -0.265625,-0.5625 -0.546875,-0.5625 -0.25,0 -0.5625,0.140625 -0.5625,0.578125 0,0.90625 0.921875,1.5625 2.015625,1.5625 1.21875,0 2.125,-0.90625 2.125,-1.921875 0,-0.8125 -0.640625,-1.59375 -1.671875,-1.8125 z m 0,0"
             id="id-4f41416e-d9f8-4881-8f46-54f6a51e0623" />
        </g>
      </g>
    </g>
    <ellipse
       style="fill:#000000;stroke:#f70606;stroke-width:0;stroke-dasharray:none;stroke-opacity:1"
       id="path5445-7"
       cx="84.960648"
       cy="93.192131"
       rx="1.6974787"
       ry="1.7887573" />
    <ellipse
       style="fill:#000000;stroke:#f70606;stroke-width:0;stroke-dasharray:none;stroke-opacity:1"
       id="path5445-1"
       cx="84.666664"
       cy="121.41435"
       rx="1.6974787"
       ry="1.7887573" />
    <ellipse
       style="fill:#000000;stroke:#f70606;stroke-width:0;stroke-dasharray:none;stroke-opacity:1"
       id="path5445-2"
       cx="233.71529"
       cy="65.851852"
       rx="1.6974787"
       ry="1.7887573" />
    <ellipse
       style="fill:#000000;stroke:#f70606;stroke-width:0;stroke-dasharray:none;stroke-opacity:1"
       id="path5445-11"
       cx="234.00926"
       cy="93.78009"
       rx="1.6974787"
       ry="1.7887573" />
    <ellipse
       style="fill:#000000;stroke:#f70606;stroke-width:0;stroke-dasharray:none;stroke-opacity:1"
       id="path5445-76"
       cx="233.71529"
       cy="121.12037"
       rx="1.6974787"
       ry="1.7887573" />
    <g
       transform="matrix(1.33333,0,0,1.33333,75.675759,189.92418)"
       ns2:version="1.8.2"
       ns2:texconverter="pdflatex"
       ns2:pdfconverter="inkscape"
       ns2:text="$\\mathbb{N^*}$"
       ns2:preamble="C:\Users\Fernando\AppData\Roaming\inkscape\extensions\textext\default_packages.tex"
       ns2:scale="1.0"
       ns2:alignment="middle center"
       ns2:stroke-to-path="0"
       ns2:inkscapeversion="1.2.1"
       ns2:jacobian_sqrt="1.33333"
       id="g5183">
      <defs
         id="id-cbaf7e0a-4771-49fe-a0dd-5b7130f023c9">
        <g
           id="id-e5526287-453a-4154-8212-13cb046d3b7b">
          <g
             id="id-48536e6a-f297-4db2-b0d8-0fec1e697798" />
          <g
             id="id-958f1057-c7ab-4028-a141-e845bbe8858f">
            <path
               d="m 1.109375,-5.9375 v 4.875 c 0,0.53125 -0.078125,0.703125 -0.578125,0.71875 -0.109375,0 -0.28125,0 -0.28125,0.171875 C 0.25,0 0.40625,0 0.59375,0 H 2.140625 C 2.3125,0 2.46875,0 2.46875,-0.171875 c 0,-0.171875 -0.171875,-0.171875 -0.3125,-0.171875 -0.546875,-0.015625 -0.625,-0.21875 -0.625,-0.75 v -4.5625 l 4.3125,5.703125 C 5.9375,0.15625 5.984375,0.1875 6.046875,0.1875 6.21875,0.1875 6.21875,0.03125 6.21875,-0.140625 v -5.625 c 0,-0.5625 0.09375,-0.703125 0.546875,-0.71875 0.0625,0 0.234375,0 0.234375,-0.171875 C 7,-6.828125 6.84375,-6.828125 6.671875,-6.828125 H 5.21875 c -0.1875,0 -0.34375,0 -0.34375,0.171875 0,0.171875 0.171875,0.171875 0.28125,0.171875 0.5625,0.015625 0.640625,0.21875 0.640625,0.75 V -2.625 l -3,-4.0625 C 2.6875,-6.828125 2.65625,-6.828125 2.4375,-6.828125 H 0.703125 c -0.1875,0 -0.328125,0 -0.328125,0.171875 0,0.15625 0.140625,0.171875 0.203125,0.171875 0.265625,0.03125 0.453125,0.1875 0.5625,0.3125 -0.03125,0.078125 -0.03125,0.09375 -0.03125,0.234375 z M 5.875,-0.515625 1.53125,-6.234375 C 1.4375,-6.359375 1.4375,-6.375 1.328125,-6.484375 h 1.1875 L 5.875,-1.9375 Z m 0,0"
               id="id-7b97f8fa-85fc-41ac-bcfd-e41439ddf056" />
          </g>
          <g
             id="id-962767af-dc5c-4a10-8b66-7f740501c8c4" />
          <g
             id="id-b31df64e-35e4-4ea7-b62b-2aa43413927d">
            <path
               d="m 2.25,-1.734375 c 0.578125,-0.25 0.828125,-0.34375 1,-0.4375 0.140625,-0.046875 0.203125,-0.078125 0.203125,-0.21875 0,-0.109375 -0.09375,-0.21875 -0.21875,-0.21875 -0.046875,0 -0.0625,0 -0.140625,0.0625 L 2.140625,-1.90625 2.25,-2.9375 c 0.015625,-0.125 0,-0.296875 -0.21875,-0.296875 -0.078125,0 -0.21875,0.046875 -0.21875,0.203125 0,0.0625 0.03125,0.265625 0.046875,0.34375 0.015625,0.109375 0.0625,0.625 0.078125,0.78125 L 0.984375,-2.546875 c -0.0625,-0.03125 -0.078125,-0.0625 -0.140625,-0.0625 -0.140625,0 -0.21875,0.109375 -0.21875,0.21875 0,0.140625 0.078125,0.1875 0.140625,0.203125 L 1.8125,-1.734375 c -0.5625,0.25 -0.828125,0.34375 -1,0.421875 -0.125,0.0625 -0.1875,0.09375 -0.1875,0.21875 0,0.125 0.078125,0.21875 0.21875,0.21875 0.046875,0 0.0625,0 0.140625,-0.0625 l 0.953125,-0.625 -0.125,1.109375 c 0,0.15625 0.140625,0.21875 0.21875,0.21875 0.09375,0 0.21875,-0.0625 0.21875,-0.21875 0,-0.0625 -0.03125,-0.265625 -0.03125,-0.328125 -0.015625,-0.125 -0.0625,-0.625 -0.078125,-0.78125 L 2.96875,-1.015625 C 3.15625,-0.875 3.171875,-0.875 3.234375,-0.875 c 0.125,0 0.21875,-0.09375 0.21875,-0.21875 0,-0.140625 -0.09375,-0.171875 -0.15625,-0.203125 z m 0,0"
               id="id-4802c948-e16f-4e18-9dfb-25ae4b8d4231" />
          </g>
        </g>
      </defs>
      <g
         fill="#000000"
         fill-opacity="1"
         id="id-303ba097-a849-4051-9f51-6a0bcff0773d"
         transform="translate(-148.962,-127.915)">
        <g
           transform="translate(148.712,134.765)"
           id="g5176">
          <path
             d="m 1.109375,-5.9375 v 4.875 c 0,0.53125 -0.078125,0.703125 -0.578125,0.71875 -0.109375,0 -0.28125,0 -0.28125,0.171875 C 0.25,0 0.40625,0 0.59375,0 H 2.140625 C 2.3125,0 2.46875,0 2.46875,-0.171875 c 0,-0.171875 -0.171875,-0.171875 -0.3125,-0.171875 -0.546875,-0.015625 -0.625,-0.21875 -0.625,-0.75 v -4.5625 l 4.3125,5.703125 C 5.9375,0.15625 5.984375,0.1875 6.046875,0.1875 6.21875,0.1875 6.21875,0.03125 6.21875,-0.140625 v -5.625 c 0,-0.5625 0.09375,-0.703125 0.546875,-0.71875 0.0625,0 0.234375,0 0.234375,-0.171875 C 7,-6.828125 6.84375,-6.828125 6.671875,-6.828125 H 5.21875 c -0.1875,0 -0.34375,0 -0.34375,0.171875 0,0.171875 0.171875,0.171875 0.28125,0.171875 0.5625,0.015625 0.640625,0.21875 0.640625,0.75 V -2.625 l -3,-4.0625 C 2.6875,-6.828125 2.65625,-6.828125 2.4375,-6.828125 H 0.703125 c -0.1875,0 -0.328125,0 -0.328125,0.171875 0,0.15625 0.140625,0.171875 0.203125,0.171875 0.265625,0.03125 0.453125,0.1875 0.5625,0.3125 -0.03125,0.078125 -0.03125,0.09375 -0.03125,0.234375 z M 5.875,-0.515625 1.53125,-6.234375 C 1.4375,-6.359375 1.4375,-6.375 1.328125,-6.484375 h 1.1875 L 5.875,-1.9375 Z m 0,0"
             id="id-1004350c-091c-450a-8c09-27c71febe6bb" />
        </g>
      </g>
      <g
         fill="#000000"
         fill-opacity="1"
         id="id-e4151f59-07ae-48c3-8147-1500a3360220"
         transform="translate(-148.962,-127.915)">
        <g
           transform="translate(155.908,131.149)"
           id="g5180">
          <path
             d="m 2.25,-1.734375 c 0.578125,-0.25 0.828125,-0.34375 1,-0.4375 0.140625,-0.046875 0.203125,-0.078125 0.203125,-0.21875 0,-0.109375 -0.09375,-0.21875 -0.21875,-0.21875 -0.046875,0 -0.0625,0 -0.140625,0.0625 L 2.140625,-1.90625 2.25,-2.9375 c 0.015625,-0.125 0,-0.296875 -0.21875,-0.296875 -0.078125,0 -0.21875,0.046875 -0.21875,0.203125 0,0.0625 0.03125,0.265625 0.046875,0.34375 0.015625,0.109375 0.0625,0.625 0.078125,0.78125 L 0.984375,-2.546875 c -0.0625,-0.03125 -0.078125,-0.0625 -0.140625,-0.0625 -0.140625,0 -0.21875,0.109375 -0.21875,0.21875 0,0.140625 0.078125,0.1875 0.140625,0.203125 L 1.8125,-1.734375 c -0.5625,0.25 -0.828125,0.34375 -1,0.421875 -0.125,0.0625 -0.1875,0.09375 -0.1875,0.21875 0,0.125 0.078125,0.21875 0.21875,0.21875 0.046875,0 0.0625,0 0.140625,-0.0625 l 0.953125,-0.625 -0.125,1.109375 c 0,0.15625 0.140625,0.21875 0.21875,0.21875 0.09375,0 0.21875,-0.0625 0.21875,-0.21875 0,-0.0625 -0.03125,-0.265625 -0.03125,-0.328125 -0.015625,-0.125 -0.0625,-0.625 -0.078125,-0.78125 L 2.96875,-1.015625 C 3.15625,-0.875 3.171875,-0.875 3.234375,-0.875 c 0.125,0 0.21875,-0.09375 0.21875,-0.21875 0,-0.140625 -0.09375,-0.171875 -0.15625,-0.203125 z m 0,0"
             id="id-ef428df5-d4f1-45df-b07e-923a5546c078" />
        </g>
      </g>
    </g>
    <g
       transform="matrix(1.33333,0,0,1.33333,236.1978,189.47522)"
       ns2:version="1.8.2"
       ns2:texconverter="pdflatex"
       ns2:pdfconverter="inkscape"
       ns2:text="$\\mathbb{R}$"
       ns2:preamble="C:\Users\Fernando\AppData\Roaming\inkscape\extensions\textext\default_packages.tex"
       ns2:scale="1.0"
       ns2:alignment="middle center"
       ns2:stroke-to-path="0"
       ns2:inkscapeversion="1.2.1"
       ns2:jacobian_sqrt="1.33333"
       id="g5511">
      <defs
         id="id-52902940-d0bf-44b1-99eb-68eaace53bd5">
        <g
           id="id-b4326dd9-43e7-427f-a136-5c0fce23a33e">
          <g
             id="id-d21a4ee0-b591-4ab7-8653-9e33efefaf40" />
          <g
             id="id-29df50d1-3251-4028-8242-7a379b79b96b">
            <path
               d="M 2.671875,-3.125 H 3.03125 l 1.5,2.3125 C 4.625,-0.65625 4.859375,-0.265625 4.96875,-0.125 5.046875,0 5.078125,0 5.296875,0 h 1.375 c 0.1875,0 0.34375,0 0.34375,-0.171875 0,-0.09375 -0.0625,-0.15625 -0.15625,-0.171875 C 6.484375,-0.421875 6,-1.09375 5.765625,-1.40625 5.6875,-1.5 5.1875,-2.15625 4.53125,-3.234375 5.40625,-3.40625 6.265625,-3.78125 6.265625,-4.96875 6.265625,-6.34375 4.8125,-6.828125 3.625,-6.828125 H 0.5 c -0.1875,0 -0.34375,0 -0.34375,0.171875 0,0.171875 0.1875,0.171875 0.265625,0.171875 0.578125,0 0.625,0.078125 0.625,0.578125 v 4.984375 c 0,0.5 -0.046875,0.578125 -0.625,0.578125 -0.078125,0 -0.265625,0 -0.265625,0.171875 C 0.15625,0 0.3125,0 0.5,0 H 3.234375 C 3.40625,0 3.5625,0 3.5625,-0.171875 c 0,-0.171875 -0.171875,-0.171875 -0.28125,-0.171875 -0.5625,0 -0.609375,-0.078125 -0.609375,-0.578125 z m 1.921875,-0.5 c 0.28125,-0.359375 0.3125,-0.890625 0.3125,-1.328125 0,-0.484375 -0.0625,-1.015625 -0.375,-1.421875 0.40625,0.09375 1.390625,0.40625 1.390625,1.40625 0,0.65625 -0.296875,1.15625 -1.328125,1.34375 z M 2.671875,-5.9375 c 0,-0.21875 0,-0.546875 0.625,-0.546875 0.84375,0 1.265625,0.359375 1.265625,1.53125 0,1.28125 -0.3125,1.46875 -1.890625,1.46875 z M 1.3125,-0.34375 C 1.390625,-0.53125 1.390625,-0.8125 1.390625,-0.890625 V -5.9375 c 0,-0.09375 0,-0.359375 -0.078125,-0.546875 h 1.140625 c -0.125,0.171875 -0.125,0.359375 -0.125,0.515625 v 5.078125 c 0,0.09375 0,0.359375 0.078125,0.546875 z M 3.4375,-3.125 c 0.078125,-0.015625 0.109375,-0.03125 0.1875,-0.03125 0.15625,0 0.375,-0.015625 0.515625,-0.03125 0.15625,0.234375 1.234375,2.015625 2.0625,2.84375 h -0.96875 z m 0,0"
               id="id-3b966380-0ed4-47b8-970c-47a923d9ad45" />
          </g>
        </g>
      </defs>
      <g
         fill="#000000"
         fill-opacity="1"
         id="id-a3630578-8841-412e-90fd-724fdb345228"
         transform="translate(-148.868,-127.937)">
        <g
           transform="translate(148.712,134.765)"
           id="g5508">
          <path
             d="M 2.671875,-3.125 H 3.03125 l 1.5,2.3125 C 4.625,-0.65625 4.859375,-0.265625 4.96875,-0.125 5.046875,0 5.078125,0 5.296875,0 h 1.375 c 0.1875,0 0.34375,0 0.34375,-0.171875 0,-0.09375 -0.0625,-0.15625 -0.15625,-0.171875 C 6.484375,-0.421875 6,-1.09375 5.765625,-1.40625 5.6875,-1.5 5.1875,-2.15625 4.53125,-3.234375 5.40625,-3.40625 6.265625,-3.78125 6.265625,-4.96875 6.265625,-6.34375 4.8125,-6.828125 3.625,-6.828125 H 0.5 c -0.1875,0 -0.34375,0 -0.34375,0.171875 0,0.171875 0.1875,0.171875 0.265625,0.171875 0.578125,0 0.625,0.078125 0.625,0.578125 v 4.984375 c 0,0.5 -0.046875,0.578125 -0.625,0.578125 -0.078125,0 -0.265625,0 -0.265625,0.171875 C 0.15625,0 0.3125,0 0.5,0 H 3.234375 C 3.40625,0 3.5625,0 3.5625,-0.171875 c 0,-0.171875 -0.171875,-0.171875 -0.28125,-0.171875 -0.5625,0 -0.609375,-0.078125 -0.609375,-0.578125 z m 1.921875,-0.5 c 0.28125,-0.359375 0.3125,-0.890625 0.3125,-1.328125 0,-0.484375 -0.0625,-1.015625 -0.375,-1.421875 0.40625,0.09375 1.390625,0.40625 1.390625,1.40625 0,0.65625 -0.296875,1.15625 -1.328125,1.34375 z M 2.671875,-5.9375 c 0,-0.21875 0,-0.546875 0.625,-0.546875 0.84375,0 1.265625,0.359375 1.265625,1.53125 0,1.28125 -0.3125,1.46875 -1.890625,1.46875 z M 1.3125,-0.34375 C 1.390625,-0.53125 1.390625,-0.8125 1.390625,-0.890625 V -5.9375 c 0,-0.09375 0,-0.359375 -0.078125,-0.546875 h 1.140625 c -0.125,0.171875 -0.125,0.359375 -0.125,0.515625 v 5.078125 c 0,0.09375 0,0.359375 0.078125,0.546875 z M 3.4375,-3.125 c 0.078125,-0.015625 0.109375,-0.03125 0.1875,-0.03125 0.15625,0 0.375,-0.015625 0.515625,-0.03125 0.15625,0.234375 1.234375,2.015625 2.0625,2.84375 h -0.96875 z m 0,0"
             id="id-0609b6a0-ce06-48a6-8f7e-b199569b34e5" />
        </g>
      </g>
    </g>
    <path
       style="fill:#010000;fill-opacity:1;stroke:#000000;stroke-width:0.555121;stroke-dasharray:none;stroke-opacity:1;marker-mid:url(#Arrow2-8-1)"
       d="m 95.198208,194.02767 c 134.190482,-0.41259 134.190482,0 134.190482,0 z"
       id="path6379-5-5" />
    <g
       transform="matrix(1.33333,0,0,1.33333,158.67176,180.03772)"
       ns2:version="1.8.2"
       ns2:texconverter="pdflatex"
       ns2:pdfconverter="inkscape"
       ns2:text="$f$"
       ns2:preamble="C:\Users\Fernando\AppData\Roaming\inkscape\extensions\textext\default_packages.tex"
       ns2:scale="1.0"
       ns2:alignment="middle center"
       ns2:stroke-to-path="0"
       ns2:inkscapeversion="1.2.1"
       ns2:jacobian_sqrt="1.33333"
       id="g7839">
      <defs
         id="id-ad240b82-7b46-4d50-a82c-1391cdaea377">
        <g
           id="id-c8bf1b1c-9650-40e0-b9e4-1c09559b2042">
          <g
             id="id-26bcb0d0-591f-4afd-bfdc-c86d3c8f2862" />
          <g
             id="id-a011f1dd-d7a1-4548-8a58-468c3254ce0d">
            <path
               d="m 3.65625,-3.984375 h 0.859375 c 0.203125,0 0.296875,0 0.296875,-0.203125 0,-0.109375 -0.09375,-0.109375 -0.265625,-0.109375 H 3.71875 L 3.921875,-5.4375 c 0.046875,-0.203125 0.1875,-0.90625 0.25,-1.03125 0.078125,-0.1875 0.25,-0.34375 0.46875,-0.34375 0.03125,0 0.296875,0 0.484375,0.1875 -0.4375,0.03125 -0.546875,0.390625 -0.546875,0.53125 0,0.234375 0.1875,0.359375 0.375,0.359375 C 5.21875,-5.734375 5.5,-5.96875 5.5,-6.34375 c 0,-0.453125 -0.453125,-0.6875 -0.859375,-0.6875 -0.34375,0 -0.96875,0.1875 -1.265625,1.171875 -0.0625,0.203125 -0.09375,0.3125 -0.328125,1.5625 h -0.6875 c -0.203125,0 -0.3125,0 -0.3125,0.1875 0,0.125 0.09375,0.125 0.28125,0.125 h 0.65625 L 2.25,-0.046875 c -0.1875,0.96875 -0.359375,1.875 -0.875,1.875 -0.046875,0 -0.28125,0 -0.484375,-0.1875 C 1.359375,1.609375 1.453125,1.25 1.453125,1.109375 1.453125,0.875 1.265625,0.75 1.078125,0.75 0.8125,0.75 0.53125,0.984375 0.53125,1.359375 c 0,0.4375 0.4375,0.6875 0.84375,0.6875 0.546875,0 0.953125,-0.59375 1.125,-0.96875 0.328125,-0.625 0.546875,-1.828125 0.5625,-1.90625 z m 0,0"
               id="id-46a4d140-2885-42ff-8e73-a94d7164cf3b" />
          </g>
        </g>
      </defs>
      <g
         fill="#000000"
         fill-opacity="1"
         id="id-39fc973f-e5a8-4325-9beb-67f33e956066"
         transform="translate(-149.243,-127.734)">
        <g
           transform="translate(148.712,134.765)"
           id="g7836">
          <path
             d="m 3.65625,-3.984375 h 0.859375 c 0.203125,0 0.296875,0 0.296875,-0.203125 0,-0.109375 -0.09375,-0.109375 -0.265625,-0.109375 H 3.71875 L 3.921875,-5.4375 c 0.046875,-0.203125 0.1875,-0.90625 0.25,-1.03125 0.078125,-0.1875 0.25,-0.34375 0.46875,-0.34375 0.03125,0 0.296875,0 0.484375,0.1875 -0.4375,0.03125 -0.546875,0.390625 -0.546875,0.53125 0,0.234375 0.1875,0.359375 0.375,0.359375 C 5.21875,-5.734375 5.5,-5.96875 5.5,-6.34375 c 0,-0.453125 -0.453125,-0.6875 -0.859375,-0.6875 -0.34375,0 -0.96875,0.1875 -1.265625,1.171875 -0.0625,0.203125 -0.09375,0.3125 -0.328125,1.5625 h -0.6875 c -0.203125,0 -0.3125,0 -0.3125,0.1875 0,0.125 0.09375,0.125 0.28125,0.125 h 0.65625 L 2.25,-0.046875 c -0.1875,0.96875 -0.359375,1.875 -0.875,1.875 -0.046875,0 -0.28125,0 -0.484375,-0.1875 C 1.359375,1.609375 1.453125,1.25 1.453125,1.109375 1.453125,0.875 1.265625,0.75 1.078125,0.75 0.8125,0.75 0.53125,0.984375 0.53125,1.359375 c 0,0.4375 0.4375,0.6875 0.84375,0.6875 0.546875,0 0.953125,-0.59375 1.125,-0.96875 0.328125,-0.625 0.546875,-1.828125 0.5625,-1.90625 z m 0,0"
             id="id-65a48541-19ca-4487-929d-d6e273a89909" />
        </g>
      </g>
    </g>
  </g>
</svg>
